<svg xmlns="http://www.w3.org/2000/svg" viewBox="0 0 179.99835 33.007999" height="33.008" width="180"><g fill="#b3b3b3"><path d="M8.635 14.66l.464 4.425h.143l.5-4.496L14.095.71h3.212l4.282 13.952.5 4.424h.142l.535-4.496L25.8.71h4.96l-6.886 25.156H20.59l-4.46-13.88-.608-3.819h-.178l-.607 3.854-4.424 13.845H6.85L0 .708h5.317l3.318 13.953zM33.163 7.845h4.64v17.842h-4.64V7.845zm-.678-5.032q0-1.034.75-1.748.785-.75 2.14-.75t2.178.75q.856.714.856 1.748t-.856 1.749q-.821.678-2.177.678t-2.141-.678q-.75-.714-.75-1.749zM41.458 21.762l7.03-8.457 1.82-1.535h-8.85V7.845h13.988v3.925l-6.958 8.6-1.784 1.392h8.742v3.925H41.458v-3.925zM65.26 17.872l.642 2.784h.214l.464-2.82 2.712-9.991h4.781L68.65 23.938q-.678 1.999-1.32 3.64-.607 1.677-1.356 2.89t-1.677 1.856q-.892.678-2.141.678-1.856 0-2.962-.606l.856-3.712q.536.215 1.071.215.82 0 1.57-.714.785-.678 1.178-2.498L56.41 7.845h5.566l3.283 10.027z"/></g><g fill="#449bff"><path d="M93.684 5.062h-7.28v20.625h-4.889V5.062H74.2V.708h19.484v4.354zM91.432 16.766q0-4.532 2.212-6.958 2.212-2.463 6.21-2.463 2.14 0 3.71.678t2.605 1.927q1.035 1.214 1.535 2.962.535 1.749.535 3.854 0 4.532-2.213 6.994-2.176 2.427-6.173 2.427-2.14 0-3.711-.678t-2.64-1.892q-1.035-1.249-1.57-2.997-.5-1.749-.5-3.854zm4.781 0q0 1.178.214 2.177t.643 1.748 1.106 1.178q.714.392 1.677.392 1.82 0 2.712-1.32t.892-4.175q0-2.462-.82-3.961-.821-1.534-2.784-1.534-1.713 0-2.676 1.284t-.964 4.211zm3.854-16.772h4.71v1.07l-3.96 4.426h-2.641l1.891-5.496zM124.023 7.845l3.247 9.135.643 2.962h.142l.5-2.998 2.284-9.1h4.246l-5.495 18.021h-3.426l-3.604-9.991-.464-2.248h-.178l-.428 2.284-3.426 9.955h-3.533l-5.745-18.02h5.031l2.605 8.957.429 3.176h.178l.607-3.212 2.961-8.921h3.426zM142.714 18.3h-1.25v7.387h-4.638V.708h4.639v14.738l1.07-.5 4.068-7.101h5.103l-4.282 6.78-1.82 1.356 1.963 1.392 4.817 8.314h-5.317l-4.353-7.387zM154.212 8.88q1.427-.643 3.39-1 1.963-.392 4.104-.392 1.855 0 3.104.464 1.249.428 1.963 1.249.75.82 1.035 1.963.32 1.141.32 2.569 0 1.57-.106 3.176-.107 1.57-.143 3.104 0 1.535.107 2.998.107 1.427.535 2.712h-3.782l-.75-2.463h-.178q-.714 1.107-1.998 1.927-1.25.785-3.248.785-1.249 0-2.248-.356-.999-.393-1.713-1.07-.713-.715-1.106-1.642-.392-.964-.392-2.141 0-1.642.713-2.748.75-1.142 2.106-1.82 1.391-.714 3.283-.963 1.927-.286 4.282-.179.25-1.998-.286-2.855-.535-.892-2.39-.892-1.392 0-2.962.286-1.535.285-2.534.75l-1.106-3.462zm5.888 13.274q1.391 0 2.212-.606.82-.643 1.213-1.356v-2.32q-1.106-.107-2.14-.036-1 .072-1.785.322t-1.249.713-.464 1.178q0 .999.571 1.57.607.535 1.642.535z"/></g><path fill="#999" d="M174.266 11.69q1.428 0 2.181-.554.773-.575.773-1.646 0-1.15-.892-1.685t-2.537-.535l-1.725.08V-.007h7.414v2.578h-4.996V5.03l.893-.08q1.05.04 1.903.377.852.317 1.447.892.614.575.932 1.388.337.813.337 1.804 0 1.17-.436 2.062t-1.21 1.487q-.753.594-1.804.892-1.03.297-2.24.297-.971 0-1.863-.158-.873-.16-1.468-.417l.754-2.3q.495.179 1.07.298.595.119 1.467.119z"/></svg>